<svg width="15" height="15" viewBox="0 0 20 20" fill="none" xmlns="http://www.w3.org/2000/svg">
<path fill-rule="evenodd" clip-rule="evenodd" d="M5.80752 2.0575C5.86558 1.9993 5.93454 1.95312 6.01048 1.92161C6.08641 1.8901 6.16781 1.87389 6.25002 1.87389C6.33223 1.87389 6.41363 1.8901 6.48956 1.92161C6.56549 1.95312 6.63446 1.9993 6.69252 2.0575L14.1925 9.5575C14.2507 9.61556 14.2969 9.68453 14.3284 9.76046C14.3599 9.83639 14.3761 9.91779 14.3761 10C14.3761 10.0822 14.3599 10.1636 14.3284 10.2395C14.2969 10.3155 14.2507 10.3844 14.1925 10.4425L6.69252 17.9425C6.57516 18.0599 6.41599 18.1258 6.25002 18.1258C6.08405 18.1258 5.92488 18.0599 5.80752 17.9425C5.69016 17.8251 5.62423 17.666 5.62423 17.5C5.62423 17.334 5.69016 17.1749 5.80752 17.0575L12.8663 10L5.80752 2.9425C5.74931 2.88445 5.70314 2.81548 5.67163 2.73955C5.64012 2.66361 5.6239 2.58221 5.6239 2.5C5.6239 2.41779 5.64012 2.33639 5.67163 2.26046C5.70314 2.18453 5.74931 2.11556 5.80752 2.0575Z" fill="#4b6382"/>
</svg>
