<svg width="11" height="21" viewBox="0 0 11 21" fill="none" xmlns="http://www.w3.org/2000/svg">
<path fill-rule="evenodd" clip-rule="evenodd" d="M10.7406 0.571929C10.8134 0.6445 10.8711 0.730712 10.9105 0.825626C10.9499 0.920541 10.9701 1.02229 10.9701 1.12505C10.9701 1.22782 10.9499 1.32957 10.9105 1.42448C10.8711 1.5194 10.8134 1.60561 10.7406 1.67818L1.91718 10.5001L10.7406 19.3219C10.8873 19.4686 10.9697 19.6676 10.9697 19.8751C10.9697 20.0825 10.8873 20.2815 10.7406 20.4282C10.5939 20.5749 10.395 20.6573 10.1875 20.6573C9.98003 20.6573 9.78107 20.5749 9.63437 20.4282L0.259367 11.0532C0.186612 10.9806 0.128889 10.8944 0.0895037 10.7995C0.0501187 10.7046 0.0298462 10.6028 0.0298462 10.5001C0.0298462 10.3973 0.0501187 10.2955 0.0895037 10.2006C0.128889 10.1057 0.186612 10.0195 0.259367 9.94693L9.63437 0.571929C9.70694 0.499174 9.79315 0.441451 9.88807 0.402066C9.98298 0.36268 10.0847 0.342407 10.1875 0.342407C10.2903 0.342407 10.392 0.36268 10.4869 0.402066C10.5818 0.441451 10.668 0.499174 10.7406 0.571929Z" fill="#071739"/>
</svg>
