<svg width="30" height="30" viewBox="0 0 30 30" fill="none" xmlns="http://www.w3.org/2000/svg">
<path d="M24.3125 26C25.8209 26 27.2676 25.4008 28.3342 24.3342C29.4008 23.2676 30 21.8209 30 20.3125C30 18.8041 29.4008 17.3574 28.3342 16.2908C27.2676 15.2242 25.8209 14.625 24.3125 14.625C22.8041 14.625 21.3574 15.2242 20.2908 16.2908C19.2242 17.3574 18.625 18.8041 18.625 20.3125C18.625 21.8209 19.2242 23.2676 20.2908 24.3342C21.3574 25.4008 22.8041 26 24.3125 26ZM25.125 17.875V19.5H26.75C26.9655 19.5 27.1722 19.5856 27.3245 19.738C27.4769 19.8903 27.5625 20.097 27.5625 20.3125C27.5625 20.528 27.4769 20.7347 27.3245 20.887C27.1722 21.0394 26.9655 21.125 26.75 21.125H25.125V22.75C25.125 22.9655 25.0394 23.1722 24.887 23.3245C24.7347 23.4769 24.528 23.5625 24.3125 23.5625C24.097 23.5625 23.8903 23.4769 23.738 23.3245C23.5856 23.1722 23.5 22.9655 23.5 22.75V21.125H21.875C21.6595 21.125 21.4528 21.0394 21.3005 20.887C21.1481 20.7347 21.0625 20.528 21.0625 20.3125C21.0625 20.097 21.1481 19.8903 21.3005 19.738C21.4528 19.5856 21.6595 19.5 21.875 19.5H23.5V17.875C23.5 17.6595 23.5856 17.4528 23.738 17.3005C23.8903 17.1481 24.097 17.0625 24.3125 17.0625C24.528 17.0625 24.7347 17.1481 24.887 17.3005C25.0394 17.4528 25.125 17.6595 25.125 17.875ZM21.875 8.125C21.875 9.41793 21.3614 10.6579 20.4471 11.5721C19.5329 12.4864 18.2929 13 17 13C15.7071 13 14.4671 12.4864 13.5529 11.5721C12.6386 10.6579 12.125 9.41793 12.125 8.125C12.125 6.83207 12.6386 5.59209 13.5529 4.67785C14.4671 3.76361 15.7071 3.25 17 3.25C18.2929 3.25 19.5329 3.76361 20.4471 4.67785C21.3614 5.59209 21.875 6.83207 21.875 8.125Z" fill="#FDA828"/>
<path d="M7.25 21.125C7.25 22.75 8.875 22.75 8.875 22.75H17.416C17.14 21.967 16.9993 21.1427 17 20.3125C17 19.2676 17.2239 18.2348 17.6567 17.2837C18.0895 16.3326 18.7211 15.4853 19.509 14.7989C18.7507 14.6851 17.9143 14.6272 17 14.625C8.875 14.625 7.25 19.5 7.25 21.125Z" fill="#FDA828"/>
</svg>
