<svg width="26" height="26" viewBox="0 0 26 26" fill="none" xmlns="http://www.w3.org/2000/svg">
<path d="M19.0822 16.806C20.6557 14.6589 21.3604 11.9968 21.0555 9.35236C20.7505 6.70793 19.4583 4.27616 17.4373 2.54358C15.4164 0.810986 12.8158 -0.0946547 10.1558 0.00783914C7.49583 0.110333 4.97263 1.2134 3.09102 3.09636C1.20941 4.97933 0.108141 7.50331 0.00755062 10.1634C-0.0930398 12.8234 0.814462 15.4234 2.5485 17.4431C4.28253 19.4627 6.71522 20.7532 9.35986 21.0563C12.0045 21.3594 14.6661 20.6528 16.8121 19.0777H16.8105C16.8581 19.1427 16.9112 19.205 16.9697 19.2646L23.226 25.5209C23.5307 25.8258 23.944 25.9972 24.3751 25.9973C24.8061 25.9975 25.2196 25.8264 25.5245 25.5217C25.8294 25.217 26.0008 24.8036 26.001 24.3726C26.0011 23.9415 25.83 23.528 25.5253 23.2231L19.2691 16.9669C19.211 16.908 19.1485 16.8553 19.0822 16.806ZM19.5015 10.5595C19.5015 11.7332 19.2703 12.8954 18.8211 13.9797C18.372 15.0641 17.7136 16.0493 16.8837 16.8793C16.0538 17.7092 15.0685 18.3675 13.9842 18.8167C12.8998 19.2658 11.7376 19.497 10.564 19.497C9.39027 19.497 8.22807 19.2658 7.14373 18.8167C6.05938 18.3675 5.07412 17.7092 4.24419 16.8793C3.41427 16.0493 2.75594 15.0641 2.30679 13.9797C1.85763 12.8954 1.62646 11.7332 1.62646 10.5595C1.62646 8.18912 2.56809 5.91583 4.24419 4.23972C5.9203 2.56362 8.19359 1.62199 10.564 1.62199C12.9343 1.62199 15.2076 2.56362 16.8837 4.23972C18.5598 5.91583 19.5015 8.18912 19.5015 10.5595Z" fill="black"/>
</svg>
