<svg width="26" height="26" viewBox="0 0 26 26" fill="none" xmlns="http://www.w3.org/2000/svg">
<path d="M13 1.625C14.0774 1.625 15.1108 2.05301 15.8726 2.81488C16.6345 3.57675 17.0625 4.61006 17.0625 5.6875V6.5H8.9375V5.6875C8.9375 4.61006 9.36551 3.57675 10.1274 2.81488C10.8892 2.05301 11.9226 1.625 13 1.625ZM18.6875 6.5V5.6875C18.6875 4.17908 18.0883 2.73244 17.0217 1.66583C15.9551 0.599217 14.5084 0 13 0C11.4916 0 10.0449 0.599217 8.97833 1.66583C7.91172 2.73244 7.3125 4.17908 7.3125 5.6875V6.5H1.625V22.75C1.625 23.612 1.96741 24.4386 2.5769 25.0481C3.1864 25.6576 4.01305 26 4.875 26H21.125C21.987 26 22.8136 25.6576 23.4231 25.0481C24.0326 24.4386 24.375 23.612 24.375 22.75V6.5H18.6875Z" fill="#FDA828"/>
</svg>
