<svg width="100" height="91" viewBox="0 0 100 91" fill="none" xmlns="http://www.w3.org/2000/svg">
<g filter="url(#filter0_bd_20_116)">
<path d="M82 42C82 50.4869 78.6286 58.6263 72.6274 64.6274C66.6263 70.6286 58.4869 74 50 74C41.5131 74 33.3737 70.6286 27.3726 64.6274C21.3714 58.6263 18 50.4869 18 42C18 33.5131 21.3714 25.3737 27.3726 19.3726C33.3737 13.3714 41.5131 10 50 10C58.4869 10 66.6263 13.3714 72.6274 19.3726C78.6286 25.3737 82 33.5131 82 42ZM52 28C52 27.4696 51.7893 26.9609 51.4142 26.5858C51.0391 26.2107 50.5304 26 50 26C49.4696 26 48.9609 26.2107 48.5858 26.5858C48.2107 26.9609 48 27.4696 48 28V40H36C35.4696 40 34.9609 40.2107 34.5858 40.5858C34.2107 40.9609 34 41.4696 34 42C34 42.5304 34.2107 43.0391 34.5858 43.4142C34.9609 43.7893 35.4696 44 36 44H48V56C48 56.5304 48.2107 57.0391 48.5858 57.4142C48.9609 57.7893 49.4696 58 50 58C50.5304 58 51.0391 57.7893 51.4142 57.4142C51.7893 57.0391 52 56.5304 52 56V44H64C64.5304 44 65.0391 43.7893 65.4142 43.4142C65.7893 43.0391 66 42.5304 66 42C66 41.4696 65.7893 40.9609 65.4142 40.5858C65.0391 40.2107 64.5304 40 64 40H52V28Z" fill="#FDA828"/>
</g>
<defs>
<filter id="filter0_bd_20_116" x="0" y="0" width="100" height="100" filterUnits="userSpaceOnUse" color-interpolation-filters="sRGB">
<feFlood flood-opacity="0" result="BackgroundImageFix"/>
<feGaussianBlur in="BackgroundImageFix" stdDeviation="2"/>
<feComposite in2="SourceAlpha" operator="in" result="effect1_backgroundBlur_20_116"/>
<feColorMatrix in="SourceAlpha" type="matrix" values="0 0 0 0 0 0 0 0 0 0 0 0 0 0 0 0 0 0 127 0" result="hardAlpha"/>
<feMorphology radius="6" operator="dilate" in="SourceAlpha" result="effect2_dropShadow_20_116"/>
<feOffset dy="8"/>
<feGaussianBlur stdDeviation="6"/>
<feColorMatrix type="matrix" values="0 0 0 0 0 0 0 0 0 0 0 0 0 0 0 0 0 0 0.15 0"/>
<feBlend mode="normal" in2="effect1_backgroundBlur_20_116" result="effect2_dropShadow_20_116"/>
<feBlend mode="normal" in="SourceGraphic" in2="effect2_dropShadow_20_116" result="shape"/>
</filter>
</defs>
</svg>
