<svg width="26" height="26" viewBox="0 0 26 26" fill="none" xmlns="http://www.w3.org/2000/svg">
<g clip-path="url(#clip0_104_162)">
<path d="M20.3125 26C21.8209 26 23.2676 25.4008 24.3342 24.3342C25.4008 23.2676 26 21.8209 26 20.3125C26 18.8041 25.4008 17.3574 24.3342 16.2908C23.2676 15.2242 21.8209 14.625 20.3125 14.625C18.8041 14.625 17.3574 15.2242 16.2908 16.2908C15.2242 17.3574 14.625 18.8041 14.625 20.3125C14.625 21.8209 15.2242 23.2676 16.2908 24.3342C17.3574 25.4008 18.8041 26 20.3125 26ZM21.125 17.875V19.5H22.75C22.9655 19.5 23.1722 19.5856 23.3245 19.738C23.4769 19.8903 23.5625 20.097 23.5625 20.3125C23.5625 20.528 23.4769 20.7347 23.3245 20.887C23.1722 21.0394 22.9655 21.125 22.75 21.125H21.125V22.75C21.125 22.9655 21.0394 23.1722 20.887 23.3245C20.7347 23.4769 20.528 23.5625 20.3125 23.5625C20.097 23.5625 19.8903 23.4769 19.738 23.3245C19.5856 23.1722 19.5 22.9655 19.5 22.75V21.125H17.875C17.6595 21.125 17.4528 21.0394 17.3005 20.887C17.1481 20.7347 17.0625 20.528 17.0625 20.3125C17.0625 20.097 17.1481 19.8903 17.3005 19.738C17.4528 19.5856 17.6595 19.5 17.875 19.5H19.5V17.875C19.5 17.6595 19.5856 17.4528 19.738 17.3005C19.8903 17.1481 20.097 17.0625 20.3125 17.0625C20.528 17.0625 20.7347 17.1481 20.887 17.3005C21.0394 17.4528 21.125 17.6595 21.125 17.875Z" fill="#FDA828"/>
<path d="M3.25 1.625C3.25 1.19402 3.4212 0.780698 3.72595 0.475951C4.0307 0.171205 4.44402 0 4.875 0L21.125 0C21.556 0 21.9693 0.171205 22.274 0.475951C22.5788 0.780698 22.75 1.19402 22.75 1.625V12.1875C22.75 12.403 22.6644 12.6097 22.512 12.762C22.3597 12.9144 22.153 13 21.9375 13C21.722 13 21.5153 12.9144 21.363 12.762C21.2106 12.6097 21.125 12.403 21.125 12.1875V1.625H4.875V24.375H9.75V20.3125C9.75 20.097 9.8356 19.8903 9.98798 19.738C10.1403 19.5856 10.347 19.5 10.5625 19.5H13V26H4.875C4.44402 26 4.0307 25.8288 3.72595 25.524C3.4212 25.2193 3.25 24.806 3.25 24.375V1.625Z" fill="#FDA828"/>
<path d="M7.3125 3.25C7.09701 3.25 6.89035 3.3356 6.73798 3.48798C6.5856 3.64035 6.5 3.84701 6.5 4.0625V5.6875C6.5 5.90299 6.5856 6.10965 6.73798 6.26202C6.89035 6.4144 7.09701 6.5 7.3125 6.5H8.9375C9.15299 6.5 9.35965 6.4144 9.51202 6.26202C9.6644 6.10965 9.75 5.90299 9.75 5.6875V4.0625C9.75 3.84701 9.6644 3.64035 9.51202 3.48798C9.35965 3.3356 9.15299 3.25 8.9375 3.25H7.3125ZM12.1875 3.25C11.972 3.25 11.7653 3.3356 11.613 3.48798C11.4606 3.64035 11.375 3.84701 11.375 4.0625V5.6875C11.375 5.90299 11.4606 6.10965 11.613 6.26202C11.7653 6.4144 11.972 6.5 12.1875 6.5H13.8125C14.028 6.5 14.2347 6.4144 14.387 6.26202C14.5394 6.10965 14.625 5.90299 14.625 5.6875V4.0625C14.625 3.84701 14.5394 3.64035 14.387 3.48798C14.2347 3.3356 14.028 3.25 13.8125 3.25H12.1875ZM17.0625 3.25C16.847 3.25 16.6403 3.3356 16.488 3.48798C16.3356 3.64035 16.25 3.84701 16.25 4.0625V5.6875C16.25 5.90299 16.3356 6.10965 16.488 6.26202C16.6403 6.4144 16.847 6.5 17.0625 6.5H18.6875C18.903 6.5 19.1097 6.4144 19.262 6.26202C19.4144 6.10965 19.5 5.90299 19.5 5.6875V4.0625C19.5 3.84701 19.4144 3.64035 19.262 3.48798C19.1097 3.3356 18.903 3.25 18.6875 3.25H17.0625ZM7.3125 8.125C7.09701 8.125 6.89035 8.2106 6.73798 8.36298C6.5856 8.51535 6.5 8.72201 6.5 8.9375V10.5625C6.5 10.778 6.5856 10.9847 6.73798 11.137C6.89035 11.2894 7.09701 11.375 7.3125 11.375H8.9375C9.15299 11.375 9.35965 11.2894 9.51202 11.137C9.6644 10.9847 9.75 10.778 9.75 10.5625V8.9375C9.75 8.72201 9.6644 8.51535 9.51202 8.36298C9.35965 8.2106 9.15299 8.125 8.9375 8.125H7.3125ZM12.1875 8.125C11.972 8.125 11.7653 8.2106 11.613 8.36298C11.4606 8.51535 11.375 8.72201 11.375 8.9375V10.5625C11.375 10.778 11.4606 10.9847 11.613 11.137C11.7653 11.2894 11.972 11.375 12.1875 11.375H13.8125C14.028 11.375 14.2347 11.2894 14.387 11.137C14.5394 10.9847 14.625 10.778 14.625 10.5625V8.9375C14.625 8.72201 14.5394 8.51535 14.387 8.36298C14.2347 8.2106 14.028 8.125 13.8125 8.125H12.1875ZM17.0625 8.125C16.847 8.125 16.6403 8.2106 16.488 8.36298C16.3356 8.51535 16.25 8.72201 16.25 8.9375V10.5625C16.25 10.778 16.3356 10.9847 16.488 11.137C16.6403 11.2894 16.847 11.375 17.0625 11.375H18.6875C18.903 11.375 19.1097 11.2894 19.262 11.137C19.4144 10.9847 19.5 10.778 19.5 10.5625V8.9375C19.5 8.72201 19.4144 8.51535 19.262 8.36298C19.1097 8.2106 18.903 8.125 18.6875 8.125H17.0625ZM7.3125 13C7.09701 13 6.89035 13.0856 6.73798 13.238C6.5856 13.3903 6.5 13.597 6.5 13.8125V15.4375C6.5 15.653 6.5856 15.8597 6.73798 16.012C6.89035 16.1644 7.09701 16.25 7.3125 16.25H8.9375C9.15299 16.25 9.35965 16.1644 9.51202 16.012C9.6644 15.8597 9.75 15.653 9.75 15.4375V13.8125C9.75 13.597 9.6644 13.3903 9.51202 13.238C9.35965 13.0856 9.15299 13 8.9375 13H7.3125ZM12.1875 13C11.972 13 11.7653 13.0856 11.613 13.238C11.4606 13.3903 11.375 13.597 11.375 13.8125V15.4375C11.375 15.653 11.4606 15.8597 11.613 16.012C11.7653 16.1644 11.972 16.25 12.1875 16.25H13.8125C14.028 16.25 14.2347 16.1644 14.387 16.012C14.5394 15.8597 14.625 15.653 14.625 15.4375V13.8125C14.625 13.597 14.5394 13.3903 14.387 13.238C14.2347 13.0856 14.028 13 13.8125 13H12.1875Z" fill="#FDA828"/>
</g>
<defs>
<clipPath id="clip0_104_162">
<rect width="26" height="26" fill="white"/>
</clipPath>
</defs>
</svg>
