<svg width="26" height="26" viewBox="0 0 26 26" fill="none" xmlns="http://www.w3.org/2000/svg">
<path d="M6.5 17.5191C6.7405 20.228 8.95863 22.1504 12.3354 22.399V24.375H14.0302V22.399C17.719 22.1081 20.007 20.0623 20.007 17.0365C20.007 14.4528 18.4681 12.9577 15.2035 12.116L14.0302 11.8121V5.63387C15.8535 5.81262 17.0836 6.79413 17.394 8.25988H19.7827C19.513 5.65988 17.2802 3.79437 14.0302 3.588V1.625H12.3354V3.62863C9.1845 4.00238 7.02163 6.02063 7.02163 8.75712C7.02163 11.1199 8.59137 12.792 11.3457 13.4972L12.337 13.7605V20.3109C10.4699 20.0346 9.1845 19.0109 8.87413 17.5191H6.5ZM12.0104 11.2856C10.3155 10.8583 9.41037 9.945 9.41037 8.65963C9.41037 7.12563 10.5544 5.993 12.3354 5.68913V11.3685L12.0104 11.2856ZM14.5958 14.3276C16.6871 14.8525 17.6052 15.7235 17.6052 17.2023C17.6052 18.9849 16.263 20.1727 14.0302 20.3531V14.1862L14.5958 14.3276Z" fill="#FDA828"/>
</svg>
